<?xml version="1.0" encoding="UTF-8"?>
<svg version="1.1" xmlns="http://www.w3.org/2000/svg" width="50" height="50">
<path d="M0 0 C4.93365071 2.28726139 8.59567939 6.97329971 12.38525391 10.7734375 C13.80161133 12.14725586 13.80161133 12.14725586 15.24658203 13.54882812 C16.57786133 14.87624023 16.57786133 14.87624023 17.93603516 16.23046875 C18.75370361 17.04104736 19.57137207 17.85162598 20.41381836 18.68676758 C22.07275391 20.9609375 22.07275391 20.9609375 22.03369141 23.02490234 C20.09673812 26.92735141 16.81586269 29.72926224 13.76025391 32.7734375 C13.08285156 33.47919922 12.40544922 34.18496094 11.70751953 34.91210938 C10.71848633 35.90500977 10.71848633 35.90500977 9.70947266 36.91796875 C9.1083667 37.52616455 8.50726074 38.13436035 7.88793945 38.76098633 C6.07275391 39.9609375 6.07275391 39.9609375 4.14550781 39.921875 C-0.78814289 37.63461361 -4.45017158 32.94857529 -8.23974609 29.1484375 C-9.18398437 28.23255859 -10.12822266 27.31667969 -11.10107422 26.37304688 C-11.98859375 25.48810547 -12.87611328 24.60316406 -13.79052734 23.69140625 C-14.6081958 22.88082764 -15.42586426 22.07024902 -16.26831055 21.23510742 C-17.92724609 18.9609375 -17.92724609 18.9609375 -17.88818359 16.89697266 C-15.95123031 12.99452359 -12.67035487 10.19261276 -9.61474609 7.1484375 C-8.93734375 6.44267578 -8.25994141 5.73691406 -7.56201172 5.00976562 C-6.90265625 4.34783203 -6.24330078 3.68589844 -5.56396484 3.00390625 C-4.96285889 2.39571045 -4.36175293 1.78751465 -3.74243164 1.16088867 C-1.92724609 -0.0390625 -1.92724609 -0.0390625 0 0 Z " fill="#5A5451" transform="translate(22.92724609375,5.0390625)"/>
<path d="M0 0 C0.33 1.32 0.66 2.64 1 4 C1.61875 3.79375 2.2375 3.5875 2.875 3.375 C3.926875 3.189375 3.926875 3.189375 5 3 C5.66 3.66 6.32 4.32 7 5 C6.5245546 10.21510478 2.19266967 13.32044602 -1.3125 16.8125 C-1.98990234 17.51826172 -2.66730469 18.22402344 -3.36523438 18.95117188 C-4.35426758 19.94407227 -4.35426758 19.94407227 -5.36328125 20.95703125 C-5.96438721 21.56522705 -6.56549316 22.17342285 -7.18481445 22.80004883 C-9 24 -9 24 -11.22729492 23.69018555 C-12.10478394 23.3485437 -12.10478394 23.3485437 -13 23 C-14 19.125 -14 19.125 -14 18 C-14.99 17.67 -15.98 17.34 -17 17 C-17.3771087 12.82080912 -17.44715589 10.66128689 -15.05859375 7.12890625 C-13.76115234 5.85853516 -13.76115234 5.85853516 -12.4375 4.5625 C-11.59058594 3.69753906 -10.74367188 2.83257813 -9.87109375 1.94140625 C-6.33871311 -0.44715589 -4.17919088 -0.3771087 0 0 Z " fill="#968D87" transform="translate(38,21)"/>
<path d="M0 0 C-0.103125 0.721875 -0.20625 1.44375 -0.3125 2.1875 C0.12449065 6.12041589 2.10082197 7.46321923 5 10 C3.47981211 13.55252464 1.38710542 15.94252306 -1.3125 18.6875 C-2.07175781 19.47511719 -2.83101562 20.26273438 -3.61328125 21.07421875 C-6.17036778 23.13746533 -7.77203984 23.66292097 -11 24 C-11 23.34 -11 22.68 -11 22 C-11.99 21.34 -12.98 20.68 -14 20 C-14 19.01 -14 18.02 -14 17 C-14.99 17 -15.98 17 -17 17 C-17 14 -17 14 -15.4609375 12.421875 C-14.77257812 11.87015625 -14.08421875 11.3184375 -13.375 10.75 C-9.89600626 7.86212732 -7.07208096 4.86761271 -4.32421875 1.28515625 C-3 0 -3 0 0 0 Z " fill="#A79C96" transform="translate(25,8)"/>
<path d="M0 0 C0.58499268 0.22776123 1.16998535 0.45552246 1.77270508 0.69018555 C-2.89252343 6.31238401 -7.73988898 11.8502935 -13.22729492 16.69018555 C-13.88729492 16.69018555 -14.54729492 16.69018555 -15.22729492 16.69018555 C-15.22729492 17.68018555 -15.22729492 18.67018555 -15.22729492 19.69018555 C-13.90729492 19.36018555 -12.58729492 19.03018555 -11.22729492 18.69018555 C-11.22729492 20.01018555 -11.22729492 21.33018555 -11.22729492 22.69018555 C-10.23729492 23.35018555 -9.24729492 24.01018555 -8.22729492 24.69018555 C-8.88729492 25.35018555 -9.54729492 26.01018555 -10.22729492 26.69018555 C-11.59606608 25.45619492 -12.94698658 24.20237932 -14.28979492 22.94018555 C-15.04389648 22.2440918 -15.79799805 21.54799805 -16.57495117 20.83081055 C-18.22729492 18.69018555 -18.22729492 18.69018555 -18.03295898 16.78808594 C-16.46088392 12.69449776 -12.97210144 9.92355219 -9.91479492 6.87768555 C-9.23739258 6.17192383 -8.55999023 5.46616211 -7.86206055 4.73901367 C-7.20270508 4.07708008 -6.54334961 3.41514648 -5.86401367 2.7331543 C-5.26290771 2.1249585 -4.66180176 1.5167627 -4.04248047 0.89013672 C-2.22729492 -0.30981445 -2.22729492 -0.30981445 0 0 Z " fill="#070606" transform="translate(23.227294921875,5.309814453125)"/>
<path d="M0 0 C0.33 0.99 0.66 1.98 1 3 C-0.0828125 3.96099609 -0.0828125 3.96099609 -1.1875 4.94140625 C-2.115625 5.80636719 -3.04375 6.67132813 -4 7.5625 C-4.928125 8.40941406 -5.85625 9.25632812 -6.8125 10.12890625 C-9.50809843 13.66687919 -9.42955083 15.65616727 -9 20 C-7.68 20.33 -6.36 20.66 -5 21 C-5.99 21.99 -6.98 22.98 -8 24 C-10.97 21.03 -13.94 18.06 -17 15 C-16.01 14.34 -15.02 13.68 -14 13 C-9.07339843 8.92426139 -4.46287553 4.57444742 0 0 Z " fill="#423D3B" transform="translate(31,18)"/>
<path d="M0 0 C0.66 0.33 1.32 0.66 2 1 C1.10649818 6.30896936 -2.634082 9.14784595 -6.3125 12.8125 C-6.98990234 13.51826172 -7.66730469 14.22402344 -8.36523438 14.95117188 C-9.35426758 15.94407227 -9.35426758 15.94407227 -10.36328125 16.95703125 C-11.26494019 17.86932495 -11.26494019 17.86932495 -12.18481445 18.80004883 C-14 20 -14 20 -16.22729492 19.69018555 C-17.10478394 19.3485437 -17.10478394 19.3485437 -18 19 C-15.31551418 16.31054291 -12.62533472 13.62741853 -9.921875 10.95703125 C-8.86456077 9.90887692 -7.80726933 8.86069962 -6.75 7.8125 C-5.93789063 7.01295898 -5.93789063 7.01295898 -5.109375 6.19726562 C-2.19242899 3.37492463 -2.19242899 3.37492463 0 0 Z " fill="#020201" transform="translate(43,25)"/>
<path d="M0 0 C3.59905908 0.55550695 4.99909799 1.74887248 7.25 4.5625 C8.03117187 5.52349609 8.03117187 5.52349609 8.828125 6.50390625 C9.21484375 6.99761719 9.6015625 7.49132812 10 8 C4.56559513 9.32841008 4.56559513 9.32841008 2.0625 7.875 C1 6 1 6 1.3125 3.3125 C1.539375 2.549375 1.76625 1.78625 2 1 C1.34 0.67 0.68 0.34 0 0 Z " fill="#353230" transform="translate(23,7)"/>
<path d="M0 0 C0.33 0.99 0.66 1.98 1 3 C-0.78572252 4.83947337 -2.57802449 6.67157741 -4.375 8.5 C-4.88289063 9.02464844 -5.39078125 9.54929687 -5.9140625 10.08984375 C-7.23832604 11.43153181 -8.61605865 12.71995815 -10 14 C-10.66 14 -11.32 14 -12 14 C-10.41332422 10.09714233 -7.86649519 7.66479018 -4.875 4.75 C-3.96492188 3.85796875 -3.05484375 2.9659375 -2.1171875 2.046875 C-1.41851562 1.37140625 -0.71984375 0.6959375 0 0 Z " fill="#0E0D0D" transform="translate(31,18)"/>
<path d="M0 0 C0.99 0 1.98 0 3 0 C2.67 1.32 2.34 2.64 2 4 C1.01 3.34 0.02 2.68 -1 2 C-0.67 1.34 -0.34 0.68 0 0 Z M-12 13 C-11.34 13.99 -10.68 14.98 -10 16 C-11.32 16.33 -12.64 16.66 -14 17 C-14 16.01 -14 15.02 -14 14 C-13.34 13.67 -12.68 13.34 -12 13 Z " fill="#887F7A" transform="translate(22,8)"/>
<path d="M0 0 C2.31 1.98 4.62 3.96 7 6 C6.34 6.66 5.68 7.32 5 8 C4.01 8 3.02 8 2 8 C2 7.34 2 6.68 2 6 C1.01 5.34 0.02 4.68 -1 4 C-0.67 2.68 -0.34 1.36 0 0 Z " fill="#6A635F" transform="translate(12,24)"/>
<path d="M0 0 C0.33 0.66 0.66 1.32 1 2 C2.32 1.67 3.64 1.34 5 1 C5 2.32 5 3.64 5 5 C5.99 5.66 6.98 6.32 8 7 C7.34 7.66 6.68 8.32 6 9 C4.99105628 8.07213211 3.99309093 7.13231567 3 6.1875 C2.1646875 5.40439453 2.1646875 5.40439453 1.3125 4.60546875 C0 3 0 3 0 0 Z " fill="#171615" transform="translate(7,23)"/>
<path d="M0 0 C0.33 1.32 0.66 2.64 1 4 C2.32 4.33 3.64 4.66 5 5 C4.01 5.99 3.02 6.98 2 8 C0.35 6.02 -1.3 4.04 -3 2 C-2.01 1.34 -1.02 0.68 0 0 Z " fill="#0C0B0B" transform="translate(21,34)"/>
<path d="M0 0 C1.98 1.65 3.96 3.3 6 5 C4.68 5.99 3.36 6.98 2 8 C1.896875 7.360625 1.79375 6.72125 1.6875 6.0625 C1.460625 5.381875 1.23375 4.70125 1 4 C0.01 3.67 -0.98 3.34 -2 3 C-1.34 2.01 -0.68 1.02 0 0 Z " fill="#0C0B0B" transform="translate(36,18)"/>
</svg>
